# xmcd
#
# Track frame offsets:
#	150
#	20059
#	37772
#	49843
#	67878
#	83304
#	104214
#	119450
#	127703
#	142427
#	155597
#
# Disc length: 2416 seconds
#
# Revision: 1
# Processed by: cddbd v1.5.2PL0 Copyright (c) Steve Scherf et al.
# Submitted via: audiograbber 1.83.01
#
DISCID=92096e0b
DTITLE=Matt Langley - Featherbones
DYEAR=2010
DGENRE=Country
TTITLE0=Ride It Out
TTITLE1=Everybody Knows
TTITLE2=Let It Go Now
TTITLE3=I Don't Believe It
TTITLE4=7 13
TTITLE5=Heavensent
TTITLE6=The Lion and The Virgin
TTITLE7=July
TTITLE8=Love and Money
TTITLE9=Stars and Guitars
TTITLE10=Blue Eyed Once
EXTD=Produced by Matt Langley, Dylan Galletly and Brett Stanton.\nHometown Reco
EXTD=rds NZ
EXTT0=
EXTT1=
EXTT2=
EXTT3=
EXTT4=
EXTT5=
EXTT6=
EXTT7=
EXTT8=
EXTT9=
EXTT10=
PLAYORDER=
